<?xml version="1.0" encoding="utf-8" standalone="no"?>
<!DOCTYPE svg PUBLIC "-//W3C//DTD SVG 1.1//EN"
  "http://www.w3.org/Graphics/SVG/1.1/DTD/svg11.dtd">
<!-- Created with matplotlib (http://matplotlib.org/) -->
<svg height="432pt" version="1.1" viewBox="0 0 576 432" width="576pt" xmlns="http://www.w3.org/2000/svg" xmlns:xlink="http://www.w3.org/1999/xlink">
 <defs>
  <style type="text/css">
*{stroke-linecap:butt;stroke-linejoin:round;stroke-miterlimit:100000;}
  </style>
 </defs>
 <g id="figure_1">
  <g id="patch_1">
   <path d="M 0 432 
L 576 432 
L 576 0 
L 0 0 
L 0 432 
z
" style="fill:none;"/>
  </g>
  <g id="axes_1">
   <g id="patch_2">
    <path d="M 72 388.8 
L 518.4 388.8 
L 518.4 43.2 
L 72 43.2 
L 72 388.8 
z
" style="fill:none;"/>
   </g>
   <g id="LineCollection_1">
    <path clip-path="url(#p2eb4754b1f)" d="M 231.445743 330.561205 
L 227.983973 330.060785 
L 224.522204 329.342756 
L 221.060434 328.398552 
L 217.598664 327.21639 
L 214.136895 325.780179 
L 210.675125 324.068395 
L 207.790317 322.410856 
L 204.905509 320.519527 
L 202.020701 318.365684 
L 199.135893 315.908727 
L 196.370395 313.21803 
L 193.943239 310.528721 
L 191.939133 308.025376 
L 189.894069 305.140568 
L 188.099496 302.25576 
L 186.239698 298.79399 
L 184.668708 295.33222 
L 183.361894 291.870451 
L 182.300424 288.408681 
L 181.470584 284.946912 
L 180.862223 281.485142 
L 180.468331 278.023372 
L 180.284512 274.561603 
L 180.308756 271.099833 
L 180.541327 267.638063 
L 180.98478 264.176294 
L 181.644086 260.714524 
L 182.526943 257.252755 
L 183.644251 253.790985 
L 185.010923 250.329215 
L 186.646751 246.867446 
L 188.234513 243.982638 
L 190.04823 241.09783 
L 192.212354 238.085353 
L 194.5202 235.26956 
L 197.162399 232.443406 
L 199.712855 230.042355 
L 202.597663 227.650132 
L 205.528777 225.519866 
L 208.367279 223.708969 
L 211.323622 222.058097 
L 214.713856 220.431142 
L 218.175626 219.038609 
L 221.637396 217.897095 
L 225.099165 216.991335 
L 228.695599 216.288481 
L 232.022705 215.845302 
L 235.484474 215.591796 
L 238.946244 215.546769 
L 242.429834 215.711519 
L 245.869783 216.082458 
L 249.331553 216.6691 
L 252.793322 217.476375 
L 256.497391 218.596327 
L 259.716861 219.795675 
L 263.178631 221.339229 
L 266.063439 222.842832 
L 268.948247 224.563357 
L 272.037233 226.67379 
L 274.985325 228.981636 
L 277.602671 231.309311 
L 279.910518 233.618324 
L 282.440931 236.482137 
L 284.675232 239.366945 
L 286.834057 242.564688 
L 288.67464 245.713523 
L 290.405739 249.175292 
L 291.859564 252.637062 
L 293.058128 256.098831 
L 294.017744 259.560601 
L 294.750577 263.022371 
L 295.254904 265.330217 
L 295.488481 266.422154 
L 295.995591 263.022371 
L 296.728413 259.560601 
L 297.688044 256.098831 
L 298.95025 252.472527 
L 300.340487 249.175292 
L 302.071604 245.713523 
L 303.747008 242.828715 
L 305.87379 239.641029 
L 307.834698 237.059098 
L 310.317748 234.17429 
L 312.797329 231.639718 
L 315.105175 229.538003 
L 317.989983 227.208077 
L 321.210161 224.942905 
L 324.336561 223.03741 
L 327.798331 221.227771 
L 331.2601 219.702318 
L 334.72187 218.437542 
L 338.183639 217.41551 
L 341.645409 216.623217 
L 345.107179 216.051014 
L 348.568948 215.692368 
L 352.030718 215.543306 
L 355.492487 215.602192 
L 358.954257 215.86967 
L 362.416027 216.348672 
L 365.877796 217.044636 
L 369.515797 218.019366 
L 372.934446 219.173289 
L 376.263105 220.533414 
L 379.724875 222.216481 
L 382.609683 223.847603 
L 385.494491 225.709486 
L 388.379299 227.829844 
L 391.264107 230.247893 
L 393.584232 232.443406 
L 396.277004 235.328214 
L 398.631774 238.213022 
L 400.697905 241.09783 
L 402.511531 243.982638 
L 404.099456 246.867446 
L 405.735341 250.329215 
L 407.101885 253.790985 
L 408.219218 257.252755 
L 409.149917 260.934551 
L 409.761411 264.176294 
L 410.204851 267.638063 
L 410.437421 271.099833 
L 410.461665 274.561603 
L 410.277849 278.023372 
L 409.883955 281.485142 
L 409.275601 284.946912 
L 408.445747 288.408681 
L 407.384336 291.870451 
L 406.077399 295.33222 
L 404.506594 298.79399 
L 402.803339 301.983973 
L 401.072454 304.805198 
L 399.237671 307.448414 
L 396.968148 310.333222 
L 394.375641 313.21803 
L 391.841068 315.697611 
L 388.95626 318.180661 
L 386.071452 320.357317 
L 382.892019 322.449416 
L 379.724875 324.252765 
L 376.263105 325.935867 
L 372.801336 327.345715 
L 369.339566 328.503445 
L 365.877796 329.424567 
L 362.416027 330.120501 
L 358.954257 330.599515 
L 355.492487 330.866989 
L 352.030718 330.925876 
L 348.568948 330.776811 
L 345.107179 330.418173 
L 341.645409 329.845975 
L 338.183639 329.053633 
L 334.72187 328.031634 
L 331.2601 326.766789 
L 327.798331 325.241478 
L 324.336561 323.431773 
L 321.451753 321.68372 
L 318.395716 319.564608 
L 315.486638 317.256761 
L 312.797329 314.829605 
L 310.106632 312.064107 
L 308.115333 309.75626 
L 305.87379 306.828744 
L 303.963374 303.986644 
L 302.260984 301.101836 
L 300.500687 297.640067 
L 299.020156 294.178297 
L 297.796327 290.714788 
L 296.814013 287.254758 
L 296.058929 283.792988 
L 295.488481 280.043312 
L 295.431424 280.331219 
L 293.469869 288.985643 
L 292.368584 292.447412 
L 291.019157 295.909182 
L 289.401978 299.370952 
L 287.831249 302.25576 
L 286.036518 305.140568 
L 283.949249 308.081612 
L 281.641402 310.934021 
L 278.997845 313.794992 
L 276.448748 316.221281 
L 273.56394 318.63901 
L 270.679132 320.75987 
L 267.794324 322.621474 
L 264.909516 324.252765 
L 261.447746 325.935867 
L 257.985977 327.345715 
L 254.524207 328.503445 
L 251.062437 329.424567 
L 247.600668 330.120501 
L 244.138898 330.599515 
L 240.677129 330.866989 
L 237.215359 330.925876 
L 233.753589 330.776811 
L 231.445743 330.561205 
L 231.445743 330.561205 
" style="fill:none;stroke:#000080;"/>
   </g>
   <g id="LineCollection_2">
    <path clip-path="url(#p2eb4754b1f)" d="M 232.022705 322.496142 
L 228.560935 321.953918 
L 225.099165 321.156159 
L 221.637396 320.08987 
L 218.752588 318.982751 
L 215.86778 317.661057 
L 212.978526 316.102838 
L 210.098164 314.288688 
L 207.213356 312.174657 
L 204.905509 310.235406 
L 202.586929 308.025376 
L 200.289816 305.523051 
L 198.141252 302.832721 
L 196.151308 299.947913 
L 194.442716 297.063105 
L 192.983449 294.178297 
L 191.635392 290.996422 
L 190.54238 287.83172 
L 189.612341 284.36995 
L 188.943663 280.90818 
L 188.525791 277.446411 
L 188.35238 273.984641 
L 188.420866 270.522871 
L 188.732245 267.061102 
L 189.29119 263.599332 
L 190.10641 260.137563 
L 191.191228 256.675793 
L 192.314933 253.790985 
L 193.654515 250.906177 
L 195.230047 248.021369 
L 197.069074 245.136561 
L 199.208646 242.251753 
L 201.44374 239.646484 
L 203.751586 237.298338 
L 206.059432 235.234225 
L 208.94424 232.987828 
L 211.829048 231.057555 
L 214.713856 229.401019 
L 217.960954 227.827713 
L 220.817658 226.67379 
L 223.945242 225.63782 
L 227.407012 224.752263 
L 230.868781 224.126005 
L 234.330551 223.749206 
L 237.792321 223.616195 
L 241.25409 223.724996 
L 244.71586 224.077224 
L 248.177629 224.67817 
L 251.639399 225.53718 
L 254.524207 226.460432 
L 257.409015 227.584169 
L 260.407879 228.981636 
L 263.178631 230.499284 
L 266.063439 232.338132 
L 268.564172 234.17429 
L 271.256093 236.44113 
L 273.680695 238.789983 
L 275.871786 241.217215 
L 278.044564 243.982638 
L 279.998677 246.867446 
L 281.675902 249.752254 
L 283.106993 252.637062 
L 284.316048 255.52187 
L 285.50597 258.983639 
L 286.603927 263.022371 
L 287.722205 268.215025 
L 288.641827 273.407679 
L 288.564942 273.546003 
L 286.834057 282.436175 
L 286.072324 285.523873 
L 285.022471 288.985643 
L 283.949249 291.877324 
L 282.674266 294.755259 
L 281.064441 297.820199 
L 279.333556 300.633062 
L 277.354119 303.409683 
L 275.294825 305.922658 
L 272.986978 308.384116 
L 270.679132 310.541656 
L 268.116937 312.641068 
L 265.486477 314.521468 
L 262.601669 316.305098 
L 259.712711 317.833723 
L 256.832053 319.126504 
L 253.947245 320.209065 
L 250.485476 321.247787 
L 247.023706 322.019459 
L 243.561937 322.536667 
L 240.100167 322.807346 
L 236.638397 322.835541 
L 233.176628 322.621664 
L 232.022705 322.496142 
L 232.022705 322.496142 
" style="fill:none;stroke:#000080;"/>
    <path clip-path="url(#p2eb4754b1f)" d="M 346.838063 322.496142 
L 343.376294 321.953918 
L 339.914524 321.156159 
L 336.452755 320.08987 
L 333.567947 318.982751 
L 330.683139 317.661057 
L 327.793885 316.102838 
L 324.913523 314.288688 
L 322.028715 312.174657 
L 319.720868 310.235406 
L 317.402288 308.025376 
L 315.105175 305.523051 
L 312.956611 302.832721 
L 310.966667 299.947913 
L 309.258074 297.063105 
L 307.798765 294.178297 
L 306.450751 290.998771 
L 305.348648 287.83172 
L 304.372826 284.36995 
L 303.330374 279.754257 
L 302.056423 273.407679 
L 303.875157 264.176294 
L 304.899818 260.137563 
L 306.004054 256.675793 
L 307.130087 253.790985 
L 308.469866 250.906177 
L 310.045406 248.021369 
L 311.884433 245.136561 
L 314.024005 242.251753 
L 316.259098 239.646484 
L 318.566945 237.298338 
L 320.874791 235.234225 
L 323.759599 232.987828 
L 326.644407 231.057555 
L 329.529215 229.401019 
L 332.776313 227.827713 
L 335.633017 226.67379 
L 338.760601 225.63782 
L 342.222371 224.752263 
L 345.68414 224.126005 
L 349.14591 223.749206 
L 352.607679 223.616195 
L 356.069449 223.724996 
L 359.531219 224.077224 
L 362.992988 224.67817 
L 366.454758 225.53718 
L 369.339566 226.460432 
L 372.224374 227.584169 
L 375.223238 228.981636 
L 377.99399 230.499284 
L 380.878798 232.338132 
L 383.37953 234.17429 
L 386.071452 236.44113 
L 388.496054 238.789983 
L 390.687145 241.217215 
L 392.859923 243.982638 
L 394.814036 246.867446 
L 396.491259 249.752254 
L 397.922279 252.637062 
L 399.130257 255.52187 
L 400.132102 258.406678 
L 401.080151 261.868447 
L 401.765837 265.330217 
L 402.200188 268.791987 
L 402.389771 272.253756 
L 402.337405 275.715526 
L 402.042312 279.177295 
L 401.500086 282.639065 
L 400.702325 286.100835 
L 399.635983 289.562604 
L 398.5288 292.447412 
L 397.033723 295.676573 
L 395.651392 298.217028 
L 393.834707 301.101836 
L 391.720815 303.986644 
L 389.533222 306.570005 
L 387.225376 308.949699 
L 384.917529 311.039911 
L 382.032721 313.313808 
L 379.147913 315.267726 
L 376.263105 316.944918 
L 373.301907 318.410684 
L 370.493489 319.584172 
L 367.176621 320.718531 
L 364.146912 321.533932 
L 360.685142 322.219653 
L 357.223372 322.654006 
L 353.761603 322.843594 
L 350.299833 322.791227 
L 346.838063 322.496142 
L 346.838063 322.496142 
" style="fill:none;stroke:#000080;"/>
   </g>
   <g id="patch_3">
    <path d="M 72 388.8 
L 72 43.2 
" style="fill:none;stroke:#000000;stroke-linecap:square;stroke-linejoin:miter;"/>
   </g>
   <g id="patch_4">
    <path d="M 518.4 388.8 
L 518.4 43.2 
" style="fill:none;stroke:#000000;stroke-linecap:square;stroke-linejoin:miter;"/>
   </g>
   <g id="patch_5">
    <path d="M 72 43.2 
L 518.4 43.2 
" style="fill:none;stroke:#000000;stroke-linecap:square;stroke-linejoin:miter;"/>
   </g>
   <g id="patch_6">
    <path d="M 72 388.8 
L 518.4 388.8 
" style="fill:none;stroke:#000000;stroke-linecap:square;stroke-linejoin:miter;"/>
   </g>
   <g id="matplotlib.axis_1">
    <g id="xtick_1">
     <g id="line2d_1">
      <path clip-path="url(#p2eb4754b1f)" d="M 122.4 388.8 
L 122.4 43.2 
" style="fill:none;stroke:#000000;stroke-dasharray:1.000000,3.000000;stroke-dashoffset:0.0;stroke-width:0.5;"/>
     </g>
     <g id="line2d_2">
      <defs>
       <path d="M 0 0 
L 0 -4 
" id="m85e2b24dbb" style="stroke:#000000;stroke-width:0.5;"/>
      </defs>
      <g>
       <use style="stroke:#000000;stroke-width:0.5;" x="122.4" xlink:href="#m85e2b24dbb" y="388.8"/>
      </g>
     </g>
     <g id="line2d_3">
      <defs>
       <path d="M 0 0 
L 0 4 
" id="m76147f0425" style="stroke:#000000;stroke-width:0.5;"/>
      </defs>
      <g>
       <use style="stroke:#000000;stroke-width:0.5;" x="122.4" xlink:href="#m76147f0425" y="43.2"/>
      </g>
     </g>
     <g id="text_1">
      <!-- −2 -->
      <defs>
       <path d="M 10.59375 35.5 
L 73.1875 35.5 
L 73.1875 27.203125 
L 10.59375 27.203125 
z
" id="BitstreamVeraSans-Roman-2212"/>
       <path d="M 19.1875 8.296875 
L 53.609375 8.296875 
L 53.609375 0 
L 7.328125 0 
L 7.328125 8.296875 
Q 12.9375 14.109375 22.625 23.890625 
Q 32.328125 33.6875 34.8125 36.53125 
Q 39.546875 41.84375 41.421875 45.53125 
Q 43.3125 49.21875 43.3125 52.78125 
Q 43.3125 58.59375 39.234375 62.25 
Q 35.15625 65.921875 28.609375 65.921875 
Q 23.96875 65.921875 18.8125 64.3125 
Q 13.671875 62.703125 7.8125 59.421875 
L 7.8125 69.390625 
Q 13.765625 71.78125 18.9375 73 
Q 24.125 74.21875 28.421875 74.21875 
Q 39.75 74.21875 46.484375 68.546875 
Q 53.21875 62.890625 53.21875 53.421875 
Q 53.21875 48.921875 51.53125 44.890625 
Q 49.859375 40.875 45.40625 35.40625 
Q 44.1875 33.984375 37.640625 27.21875 
Q 31.109375 20.453125 19.1875 8.296875 
" id="BitstreamVeraSans-Roman-32"/>
      </defs>
      <g transform="translate(113.5546875 401.918125)scale(0.12 -0.12)">
       <use xlink:href="#BitstreamVeraSans-Roman-2212"/>
       <use x="83.7890625" xlink:href="#BitstreamVeraSans-Roman-32"/>
      </g>
     </g>
    </g>
    <g id="xtick_2">
     <g id="line2d_4">
      <path clip-path="url(#p2eb4754b1f)" d="M 180.09616 388.8 
L 180.09616 43.2 
" style="fill:none;stroke:#000000;stroke-dasharray:1.000000,3.000000;stroke-dashoffset:0.0;stroke-width:0.5;"/>
     </g>
     <g id="line2d_5">
      <g>
       <use style="stroke:#000000;stroke-width:0.5;" x="180.096160267" xlink:href="#m85e2b24dbb" y="388.8"/>
      </g>
     </g>
     <g id="line2d_6">
      <g>
       <use style="stroke:#000000;stroke-width:0.5;" x="180.096160267" xlink:href="#m76147f0425" y="43.2"/>
      </g>
     </g>
     <g id="text_2">
      <!-- −1 -->
      <defs>
       <path d="M 12.40625 8.296875 
L 28.515625 8.296875 
L 28.515625 63.921875 
L 10.984375 60.40625 
L 10.984375 69.390625 
L 28.421875 72.90625 
L 38.28125 72.90625 
L 38.28125 8.296875 
L 54.390625 8.296875 
L 54.390625 0 
L 12.40625 0 
z
" id="BitstreamVeraSans-Roman-31"/>
      </defs>
      <g transform="translate(171.250847767 401.918125)scale(0.12 -0.12)">
       <use xlink:href="#BitstreamVeraSans-Roman-2212"/>
       <use x="83.7890625" xlink:href="#BitstreamVeraSans-Roman-31"/>
      </g>
     </g>
    </g>
    <g id="xtick_3">
     <g id="line2d_7">
      <path clip-path="url(#p2eb4754b1f)" d="M 237.792321 388.8 
L 237.792321 43.2 
" style="fill:none;stroke:#000000;stroke-dasharray:1.000000,3.000000;stroke-dashoffset:0.0;stroke-width:0.5;"/>
     </g>
     <g id="line2d_8">
      <g>
       <use style="stroke:#000000;stroke-width:0.5;" x="237.792320534" xlink:href="#m85e2b24dbb" y="388.8"/>
      </g>
     </g>
     <g id="line2d_9">
      <g>
       <use style="stroke:#000000;stroke-width:0.5;" x="237.792320534" xlink:href="#m76147f0425" y="43.2"/>
      </g>
     </g>
     <g id="text_3">
      <!-- 0 -->
      <defs>
       <path d="M 31.78125 66.40625 
Q 24.171875 66.40625 20.328125 58.90625 
Q 16.5 51.421875 16.5 36.375 
Q 16.5 21.390625 20.328125 13.890625 
Q 24.171875 6.390625 31.78125 6.390625 
Q 39.453125 6.390625 43.28125 13.890625 
Q 47.125 21.390625 47.125 36.375 
Q 47.125 51.421875 43.28125 58.90625 
Q 39.453125 66.40625 31.78125 66.40625 
M 31.78125 74.21875 
Q 44.046875 74.21875 50.515625 64.515625 
Q 56.984375 54.828125 56.984375 36.375 
Q 56.984375 17.96875 50.515625 8.265625 
Q 44.046875 -1.421875 31.78125 -1.421875 
Q 19.53125 -1.421875 13.0625 8.265625 
Q 6.59375 17.96875 6.59375 36.375 
Q 6.59375 54.828125 13.0625 64.515625 
Q 19.53125 74.21875 31.78125 74.21875 
" id="BitstreamVeraSans-Roman-30"/>
      </defs>
      <g transform="translate(233.974820534 401.918125)scale(0.12 -0.12)">
       <use xlink:href="#BitstreamVeraSans-Roman-30"/>
      </g>
     </g>
    </g>
    <g id="xtick_4">
     <g id="line2d_10">
      <path clip-path="url(#p2eb4754b1f)" d="M 295.488481 388.8 
L 295.488481 43.2 
" style="fill:none;stroke:#000000;stroke-dasharray:1.000000,3.000000;stroke-dashoffset:0.0;stroke-width:0.5;"/>
     </g>
     <g id="line2d_11">
      <g>
       <use style="stroke:#000000;stroke-width:0.5;" x="295.488480801" xlink:href="#m85e2b24dbb" y="388.8"/>
      </g>
     </g>
     <g id="line2d_12">
      <g>
       <use style="stroke:#000000;stroke-width:0.5;" x="295.488480801" xlink:href="#m76147f0425" y="43.2"/>
      </g>
     </g>
     <g id="text_4">
      <!-- 1 -->
      <g transform="translate(291.670980801 401.918125)scale(0.12 -0.12)">
       <use xlink:href="#BitstreamVeraSans-Roman-31"/>
      </g>
     </g>
    </g>
    <g id="xtick_5">
     <g id="line2d_13">
      <path clip-path="url(#p2eb4754b1f)" d="M 353.184641 388.8 
L 353.184641 43.2 
" style="fill:none;stroke:#000000;stroke-dasharray:1.000000,3.000000;stroke-dashoffset:0.0;stroke-width:0.5;"/>
     </g>
     <g id="line2d_14">
      <g>
       <use style="stroke:#000000;stroke-width:0.5;" x="353.184641068" xlink:href="#m85e2b24dbb" y="388.8"/>
      </g>
     </g>
     <g id="line2d_15">
      <g>
       <use style="stroke:#000000;stroke-width:0.5;" x="353.184641068" xlink:href="#m76147f0425" y="43.2"/>
      </g>
     </g>
     <g id="text_5">
      <!-- 2 -->
      <g transform="translate(349.367141068 401.918125)scale(0.12 -0.12)">
       <use xlink:href="#BitstreamVeraSans-Roman-32"/>
      </g>
     </g>
    </g>
    <g id="xtick_6">
     <g id="line2d_16">
      <path clip-path="url(#p2eb4754b1f)" d="M 410.880801 388.8 
L 410.880801 43.2 
" style="fill:none;stroke:#000000;stroke-dasharray:1.000000,3.000000;stroke-dashoffset:0.0;stroke-width:0.5;"/>
     </g>
     <g id="line2d_17">
      <g>
       <use style="stroke:#000000;stroke-width:0.5;" x="410.880801336" xlink:href="#m85e2b24dbb" y="388.8"/>
      </g>
     </g>
     <g id="line2d_18">
      <g>
       <use style="stroke:#000000;stroke-width:0.5;" x="410.880801336" xlink:href="#m76147f0425" y="43.2"/>
      </g>
     </g>
     <g id="text_6">
      <!-- 3 -->
      <defs>
       <path d="M 40.578125 39.3125 
Q 47.65625 37.796875 51.625 33 
Q 55.609375 28.21875 55.609375 21.1875 
Q 55.609375 10.40625 48.1875 4.484375 
Q 40.765625 -1.421875 27.09375 -1.421875 
Q 22.515625 -1.421875 17.65625 -0.515625 
Q 12.796875 0.390625 7.625 2.203125 
L 7.625 11.71875 
Q 11.71875 9.328125 16.59375 8.109375 
Q 21.484375 6.890625 26.8125 6.890625 
Q 36.078125 6.890625 40.9375 10.546875 
Q 45.796875 14.203125 45.796875 21.1875 
Q 45.796875 27.640625 41.28125 31.265625 
Q 36.765625 34.90625 28.71875 34.90625 
L 20.21875 34.90625 
L 20.21875 43.015625 
L 29.109375 43.015625 
Q 36.375 43.015625 40.234375 45.921875 
Q 44.09375 48.828125 44.09375 54.296875 
Q 44.09375 59.90625 40.109375 62.90625 
Q 36.140625 65.921875 28.71875 65.921875 
Q 24.65625 65.921875 20.015625 65.03125 
Q 15.375 64.15625 9.8125 62.3125 
L 9.8125 71.09375 
Q 15.4375 72.65625 20.34375 73.4375 
Q 25.25 74.21875 29.59375 74.21875 
Q 40.828125 74.21875 47.359375 69.109375 
Q 53.90625 64.015625 53.90625 55.328125 
Q 53.90625 49.265625 50.4375 45.09375 
Q 46.96875 40.921875 40.578125 39.3125 
" id="BitstreamVeraSans-Roman-33"/>
      </defs>
      <g transform="translate(407.063301336 401.918125)scale(0.12 -0.12)">
       <use xlink:href="#BitstreamVeraSans-Roman-33"/>
      </g>
     </g>
    </g>
    <g id="xtick_7">
     <g id="line2d_19">
      <path clip-path="url(#p2eb4754b1f)" d="M 468.576962 388.8 
L 468.576962 43.2 
" style="fill:none;stroke:#000000;stroke-dasharray:1.000000,3.000000;stroke-dashoffset:0.0;stroke-width:0.5;"/>
     </g>
     <g id="line2d_20">
      <g>
       <use style="stroke:#000000;stroke-width:0.5;" x="468.576961603" xlink:href="#m85e2b24dbb" y="388.8"/>
      </g>
     </g>
     <g id="line2d_21">
      <g>
       <use style="stroke:#000000;stroke-width:0.5;" x="468.576961603" xlink:href="#m76147f0425" y="43.2"/>
      </g>
     </g>
     <g id="text_7">
      <!-- 4 -->
      <defs>
       <path d="M 37.796875 64.3125 
L 12.890625 25.390625 
L 37.796875 25.390625 
z
M 35.203125 72.90625 
L 47.609375 72.90625 
L 47.609375 25.390625 
L 58.015625 25.390625 
L 58.015625 17.1875 
L 47.609375 17.1875 
L 47.609375 0 
L 37.796875 0 
L 37.796875 17.1875 
L 4.890625 17.1875 
L 4.890625 26.703125 
z
" id="BitstreamVeraSans-Roman-34"/>
      </defs>
      <g transform="translate(464.759461603 401.918125)scale(0.12 -0.12)">
       <use xlink:href="#BitstreamVeraSans-Roman-34"/>
      </g>
     </g>
    </g>
   </g>
   <g id="matplotlib.axis_2">
    <g id="ytick_1">
     <g id="line2d_22">
      <path clip-path="url(#p2eb4754b1f)" d="M 72 388.8 
L 518.4 388.8 
" style="fill:none;stroke:#000000;stroke-dasharray:1.000000,3.000000;stroke-dashoffset:0.0;stroke-width:0.5;"/>
     </g>
     <g id="line2d_23">
      <defs>
       <path d="M 0 0 
L 4 0 
" id="m6caf5a4009" style="stroke:#000000;stroke-width:0.5;"/>
      </defs>
      <g>
       <use style="stroke:#000000;stroke-width:0.5;" x="72.0" xlink:href="#m6caf5a4009" y="388.8"/>
      </g>
     </g>
     <g id="line2d_24">
      <defs>
       <path d="M 0 0 
L -4 0 
" id="mb4e2560fa0" style="stroke:#000000;stroke-width:0.5;"/>
      </defs>
      <g>
       <use style="stroke:#000000;stroke-width:0.5;" x="518.4" xlink:href="#mb4e2560fa0" y="388.8"/>
      </g>
     </g>
     <g id="text_8">
      <!-- −2 -->
      <g transform="translate(50.309375 392.11125)scale(0.12 -0.12)">
       <use xlink:href="#BitstreamVeraSans-Roman-2212"/>
       <use x="83.7890625" xlink:href="#BitstreamVeraSans-Roman-32"/>
      </g>
     </g>
    </g>
    <g id="ytick_2">
     <g id="line2d_25">
      <path clip-path="url(#p2eb4754b1f)" d="M 72 331.10384 
L 518.4 331.10384 
" style="fill:none;stroke:#000000;stroke-dasharray:1.000000,3.000000;stroke-dashoffset:0.0;stroke-width:0.5;"/>
     </g>
     <g id="line2d_26">
      <g>
       <use style="stroke:#000000;stroke-width:0.5;" x="72.0" xlink:href="#m6caf5a4009" y="331.103839733"/>
      </g>
     </g>
     <g id="line2d_27">
      <g>
       <use style="stroke:#000000;stroke-width:0.5;" x="518.4" xlink:href="#mb4e2560fa0" y="331.103839733"/>
      </g>
     </g>
     <g id="text_9">
      <!-- −1 -->
      <g transform="translate(50.309375 334.415089733)scale(0.12 -0.12)">
       <use xlink:href="#BitstreamVeraSans-Roman-2212"/>
       <use x="83.7890625" xlink:href="#BitstreamVeraSans-Roman-31"/>
      </g>
     </g>
    </g>
    <g id="ytick_3">
     <g id="line2d_28">
      <path clip-path="url(#p2eb4754b1f)" d="M 72 273.407679 
L 518.4 273.407679 
" style="fill:none;stroke:#000000;stroke-dasharray:1.000000,3.000000;stroke-dashoffset:0.0;stroke-width:0.5;"/>
     </g>
     <g id="line2d_29">
      <g>
       <use style="stroke:#000000;stroke-width:0.5;" x="72.0" xlink:href="#m6caf5a4009" y="273.407679466"/>
      </g>
     </g>
     <g id="line2d_30">
      <g>
       <use style="stroke:#000000;stroke-width:0.5;" x="518.4" xlink:href="#mb4e2560fa0" y="273.407679466"/>
      </g>
     </g>
     <g id="text_10">
      <!-- 0 -->
      <g transform="translate(60.365 276.718929466)scale(0.12 -0.12)">
       <use xlink:href="#BitstreamVeraSans-Roman-30"/>
      </g>
     </g>
    </g>
    <g id="ytick_4">
     <g id="line2d_31">
      <path clip-path="url(#p2eb4754b1f)" d="M 72 215.711519 
L 518.4 215.711519 
" style="fill:none;stroke:#000000;stroke-dasharray:1.000000,3.000000;stroke-dashoffset:0.0;stroke-width:0.5;"/>
     </g>
     <g id="line2d_32">
      <g>
       <use style="stroke:#000000;stroke-width:0.5;" x="72.0" xlink:href="#m6caf5a4009" y="215.711519199"/>
      </g>
     </g>
     <g id="line2d_33">
      <g>
       <use style="stroke:#000000;stroke-width:0.5;" x="518.4" xlink:href="#mb4e2560fa0" y="215.711519199"/>
      </g>
     </g>
     <g id="text_11">
      <!-- 1 -->
      <g transform="translate(60.365 219.022769199)scale(0.12 -0.12)">
       <use xlink:href="#BitstreamVeraSans-Roman-31"/>
      </g>
     </g>
    </g>
    <g id="ytick_5">
     <g id="line2d_34">
      <path clip-path="url(#p2eb4754b1f)" d="M 72 158.015359 
L 518.4 158.015359 
" style="fill:none;stroke:#000000;stroke-dasharray:1.000000,3.000000;stroke-dashoffset:0.0;stroke-width:0.5;"/>
     </g>
     <g id="line2d_35">
      <g>
       <use style="stroke:#000000;stroke-width:0.5;" x="72.0" xlink:href="#m6caf5a4009" y="158.015358932"/>
      </g>
     </g>
     <g id="line2d_36">
      <g>
       <use style="stroke:#000000;stroke-width:0.5;" x="518.4" xlink:href="#mb4e2560fa0" y="158.015358932"/>
      </g>
     </g>
     <g id="text_12">
      <!-- 2 -->
      <g transform="translate(60.365 161.326608932)scale(0.12 -0.12)">
       <use xlink:href="#BitstreamVeraSans-Roman-32"/>
      </g>
     </g>
    </g>
    <g id="ytick_6">
     <g id="line2d_37">
      <path clip-path="url(#p2eb4754b1f)" d="M 72 100.319199 
L 518.4 100.319199 
" style="fill:none;stroke:#000000;stroke-dasharray:1.000000,3.000000;stroke-dashoffset:0.0;stroke-width:0.5;"/>
     </g>
     <g id="line2d_38">
      <g>
       <use style="stroke:#000000;stroke-width:0.5;" x="72.0" xlink:href="#m6caf5a4009" y="100.319198664"/>
      </g>
     </g>
     <g id="line2d_39">
      <g>
       <use style="stroke:#000000;stroke-width:0.5;" x="518.4" xlink:href="#mb4e2560fa0" y="100.319198664"/>
      </g>
     </g>
     <g id="text_13">
      <!-- 3 -->
      <g transform="translate(60.365 103.630448664)scale(0.12 -0.12)">
       <use xlink:href="#BitstreamVeraSans-Roman-33"/>
      </g>
     </g>
    </g>
   </g>
  </g>
 </g>
 <defs>
  <clipPath id="p2eb4754b1f">
   <rect height="345.6" width="446.4" x="72.0" y="43.2"/>
  </clipPath>
 </defs>
</svg>
