<?xml version="1.0" encoding="utf-8" standalone="no"?>
<!DOCTYPE svg PUBLIC "-//W3C//DTD SVG 1.1//EN"
  "http://www.w3.org/Graphics/SVG/1.1/DTD/svg11.dtd">
<!-- Created with matplotlib (http://matplotlib.org/) -->
<svg height="432pt" version="1.1" viewBox="0 0 576 432" width="576pt" xmlns="http://www.w3.org/2000/svg" xmlns:xlink="http://www.w3.org/1999/xlink">
 <defs>
  <style type="text/css">
*{stroke-linecap:butt;stroke-linejoin:round;stroke-miterlimit:100000;}
  </style>
 </defs>
 <g id="figure_1">
  <g id="patch_1">
   <path d="M 0 432 
L 576 432 
L 576 0 
L 0 0 
L 0 432 
z
" style="fill:none;"/>
  </g>
  <g id="axes_1">
   <g id="patch_2">
    <path d="M 72 388.8 
L 518.4 388.8 
L 518.4 43.2 
L 72 43.2 
L 72 388.8 
z
" style="fill:none;"/>
   </g>
   <g id="LineCollection_1">
    <path clip-path="url(#pd17017734e)" d="M 231.445743 330.561205 
L 227.983973 330.060785 
L 224.522204 329.342756 
L 221.060434 328.398552 
L 217.598664 327.21639 
L 214.136895 325.780179 
L 210.675125 324.068395 
L 207.790317 322.410856 
L 204.905509 320.519527 
L 202.020701 318.365684 
L 199.135893 315.908727 
L 196.370395 313.21803 
L 193.943239 310.528721 
L 191.939133 308.025376 
L 189.894069 305.140568 
L 188.099496 302.25576 
L 186.239698 298.79399 
L 184.668708 295.33222 
L 183.361894 291.870451 
L 182.300424 288.408681 
L 181.470584 284.946912 
L 180.862223 281.485142 
L 180.468331 278.023372 
L 180.284512 274.561603 
L 180.308756 271.099833 
L 180.541327 267.638063 
L 180.98478 264.176294 
L 181.644086 260.714524 
L 182.526943 257.252755 
L 183.644251 253.790985 
L 185.010923 250.329215 
L 186.646751 246.867446 
L 188.234513 243.982638 
L 190.04823 241.09783 
L 192.212354 238.085353 
L 194.5202 235.26956 
L 197.162399 232.443406 
L 199.712855 230.042355 
L 202.597663 227.650132 
L 205.528777 225.519866 
L 208.367279 223.708969 
L 211.323622 222.058097 
L 214.713856 220.431142 
L 218.175626 219.038609 
L 221.637396 217.897095 
L 225.099165 216.991335 
L 228.695599 216.288481 
L 232.022705 215.845302 
L 235.484474 215.591796 
L 238.946244 215.546769 
L 242.429834 215.711519 
L 245.869783 216.082458 
L 249.331553 216.6691 
L 252.793322 217.476375 
L 256.497391 218.596327 
L 259.716861 219.795675 
L 263.178631 221.339229 
L 266.063439 222.842832 
L 268.948247 224.563357 
L 272.037233 226.67379 
L 274.985325 228.981636 
L 277.602671 231.309311 
L 279.910518 233.618324 
L 282.440931 236.482137 
L 284.675232 239.366945 
L 286.834057 242.564688 
L 288.67464 245.713523 
L 290.405739 249.175292 
L 291.859564 252.637062 
L 293.058128 256.098831 
L 294.017744 259.560601 
L 294.750577 263.022371 
L 295.254904 265.330217 
L 295.488481 266.422154 
L 295.995591 263.022371 
L 296.728413 259.560601 
L 297.688044 256.098831 
L 298.95025 252.472527 
L 300.340487 249.175292 
L 302.071604 245.713523 
L 303.747008 242.828715 
L 305.87379 239.641029 
L 307.834698 237.059098 
L 310.317748 234.17429 
L 312.797329 231.639718 
L 315.105175 229.538003 
L 317.989983 227.208077 
L 321.210161 224.942905 
L 324.336561 223.03741 
L 327.798331 221.227771 
L 331.2601 219.702318 
L 334.72187 218.437542 
L 338.183639 217.41551 
L 341.645409 216.623217 
L 345.107179 216.051014 
L 348.568948 215.692368 
L 352.030718 215.543306 
L 355.492487 215.602192 
L 358.954257 215.86967 
L 362.416027 216.348672 
L 365.877796 217.044636 
L 369.515797 218.019366 
L 372.934446 219.173289 
L 376.263105 220.533414 
L 379.724875 222.216481 
L 382.609683 223.847603 
L 385.494491 225.709486 
L 388.379299 227.829844 
L 391.264107 230.247893 
L 393.584232 232.443406 
L 396.277004 235.328214 
L 398.631774 238.213022 
L 400.697905 241.09783 
L 402.511531 243.982638 
L 404.099456 246.867446 
L 405.735341 250.329215 
L 407.101885 253.790985 
L 408.219218 257.252755 
L 409.149917 260.934551 
L 409.761411 264.176294 
L 410.204851 267.638063 
L 410.437421 271.099833 
L 410.461665 274.561603 
L 410.277849 278.023372 
L 409.883955 281.485142 
L 409.275601 284.946912 
L 408.445747 288.408681 
L 407.384336 291.870451 
L 406.077399 295.33222 
L 404.506594 298.79399 
L 402.803339 301.983973 
L 401.072454 304.805198 
L 399.237671 307.448414 
L 396.968148 310.333222 
L 394.375641 313.21803 
L 391.841068 315.697611 
L 388.95626 318.180661 
L 386.071452 320.357317 
L 382.892019 322.449416 
L 379.724875 324.252765 
L 376.263105 325.935867 
L 372.801336 327.345715 
L 369.339566 328.503445 
L 365.877796 329.424567 
L 362.416027 330.120501 
L 358.954257 330.599515 
L 355.492487 330.866989 
L 352.030718 330.925876 
L 348.568948 330.776811 
L 345.107179 330.418173 
L 341.645409 329.845975 
L 338.183639 329.053633 
L 334.72187 328.031634 
L 331.2601 326.766789 
L 327.798331 325.241478 
L 324.336561 323.431773 
L 321.451753 321.68372 
L 318.395716 319.564608 
L 315.486638 317.256761 
L 312.797329 314.829605 
L 310.106632 312.064107 
L 308.115333 309.75626 
L 305.87379 306.828744 
L 303.963374 303.986644 
L 302.260984 301.101836 
L 300.500687 297.640067 
L 299.020156 294.178297 
L 297.796327 290.714788 
L 296.814013 287.254758 
L 296.058929 283.792988 
L 295.488481 280.043312 
L 295.431424 280.331219 
L 293.469869 288.985643 
L 292.368584 292.447412 
L 291.019157 295.909182 
L 289.401978 299.370952 
L 287.831249 302.25576 
L 286.036518 305.140568 
L 283.949249 308.081612 
L 281.641402 310.934021 
L 278.997845 313.794992 
L 276.448748 316.221281 
L 273.56394 318.63901 
L 270.679132 320.75987 
L 267.794324 322.621474 
L 264.909516 324.252765 
L 261.447746 325.935867 
L 257.985977 327.345715 
L 254.524207 328.503445 
L 251.062437 329.424567 
L 247.600668 330.120501 
L 244.138898 330.599515 
L 240.677129 330.866989 
L 237.215359 330.925876 
L 233.753589 330.776811 
L 231.445743 330.561205 
L 231.445743 330.561205 
" style="fill:none;stroke:#000080;"/>
   </g>
   <g id="LineCollection_2">
    <path clip-path="url(#pd17017734e)" d="M 231.445743 327.075687 
L 227.983973 326.542568 
L 224.522204 325.77646 
L 221.03105 324.757262 
L 217.598664 323.499516 
L 214.136895 321.953884 
L 211.252087 320.433687 
L 208.367279 318.680201 
L 205.482471 316.665388 
L 202.597663 314.350236 
L 200.10236 312.064107 
L 197.871476 309.75626 
L 195.422388 306.871452 
L 193.292406 303.986644 
L 191.438279 301.101836 
L 189.827632 298.217028 
L 188.437077 295.33222 
L 187.019699 291.832708 
L 185.865776 288.299552 
L 185.010819 284.946912 
L 184.362269 281.485142 
L 183.942854 278.023372 
L 183.747256 274.561603 
L 183.773049 271.099833 
L 184.020549 267.638063 
L 184.492843 264.176294 
L 185.195942 260.714524 
L 186.139296 257.252755 
L 187.336275 253.790985 
L 188.805328 250.329215 
L 190.481469 247.031544 
L 192.212354 244.114264 
L 193.943239 241.558237 
L 196.073653 238.789983 
L 198.082907 236.482137 
L 200.340176 234.17429 
L 203.174624 231.62994 
L 206.059432 229.378438 
L 209.211206 227.250751 
L 212.185177 225.519866 
L 215.290818 223.967712 
L 218.752588 222.517392 
L 222.214357 221.337853 
L 225.676127 220.410899 
L 229.137896 219.723426 
L 232.599666 219.266287 
L 236.061436 219.033632 
L 239.523205 219.022578 
L 242.984975 219.232988 
L 246.446745 219.667474 
L 249.908514 220.331537 
L 253.370284 221.234059 
L 256.832053 222.387632 
L 260.293823 223.809752 
L 263.178631 225.217392 
L 266.063439 226.846458 
L 268.948247 228.721505 
L 271.833055 230.875001 
L 274.717863 233.352278 
L 277.30819 235.905175 
L 279.376266 238.213022 
L 281.652988 241.09783 
L 283.634618 243.982638 
L 285.358769 246.867446 
L 286.852556 249.752254 
L 288.369252 253.214023 
L 289.611918 256.675793 
L 290.614647 260.137563 
L 291.686012 264.753255 
L 292.71109 269.368948 
L 293.180634 270.561683 
L 293.757596 270.764025 
L 294.911519 270.70381 
L 295.488481 270.395016 
L 296.065442 270.666524 
L 297.219366 270.711387 
L 297.796327 270.199127 
L 299.189499 264.176294 
L 300.28555 259.560601 
L 301.323668 256.098831 
L 302.609981 252.637062 
L 304.142905 249.240702 
L 305.712995 246.290484 
L 307.604674 243.22711 
L 309.523815 240.520868 
L 311.865129 237.63606 
L 313.99321 235.328214 
L 316.391721 233.020367 
L 319.143907 230.691253 
L 322.028715 228.561693 
L 324.969854 226.67379 
L 328.098327 224.942905 
L 331.2601 223.452842 
L 334.72187 222.095105 
L 338.183639 221.001534 
L 341.645409 220.155672 
L 345.107179 219.545817 
L 348.568948 219.16399 
L 352.030718 219.005387 
L 355.492487 219.068036 
L 358.954257 219.352713 
L 362.416027 219.862965 
L 365.877796 220.605376 
L 369.339566 221.589902 
L 372.801336 222.830816 
L 376.263105 224.347444 
L 379.147913 225.841231 
L 382.032721 227.565382 
L 384.93322 229.558598 
L 387.852693 231.866444 
L 390.687145 234.447414 
L 393.187202 237.059098 
L 395.595222 239.943907 
L 397.6901 242.828715 
L 399.513515 245.713523 
L 401.096683 248.598331 
L 402.710803 252.0601 
L 404.041163 255.52187 
L 405.111185 258.990452 
L 405.93113 262.445409 
L 406.517882 265.907179 
L 406.877219 269.368948 
L 407.013655 272.830718 
L 406.928883 276.292487 
L 406.621854 279.754257 
L 406.088731 283.216027 
L 405.322627 286.677796 
L 404.313154 290.139566 
L 403.045649 293.601336 
L 401.649416 296.754015 
L 400.301812 299.370952 
L 398.597024 302.25576 
L 396.456761 305.386311 
L 394.385419 308.025376 
L 392.341514 310.333222 
L 390.043222 312.641068 
L 387.225376 315.126347 
L 384.340568 317.340636 
L 381.45576 319.268261 
L 378.570952 320.944387 
L 375.56741 322.449416 
L 372.224374 323.863725 
L 368.762604 325.060704 
L 365.300835 326.004058 
L 361.839065 326.707157 
L 358.377295 327.179451 
L 354.915526 327.426951 
L 351.453756 327.452744 
L 347.991987 327.257146 
L 344.530217 326.837731 
L 341.068447 326.189181 
L 337.606678 325.302985 
L 334.144908 324.166674 
L 330.683139 322.762923 
L 327.651579 321.295492 
L 324.58774 319.564608 
L 321.922033 317.833723 
L 319.143907 315.777612 
L 316.777767 313.794992 
L 314.334905 311.487145 
L 312.168638 309.179299 
L 309.787738 306.294491 
L 307.604674 303.242098 
L 305.87379 300.45749 
L 304.142905 297.227906 
L 302.753521 294.178297 
L 301.440466 290.716528 
L 300.379072 287.254758 
L 299.391501 283.216027 
L 297.796327 276.279914 
L 297.219366 275.763802 
L 296.065442 275.801685 
L 295.488481 276.072637 
L 294.911519 275.766865 
L 293.757054 275.715526 
L 293.180634 275.900334 
L 292.475875 278.023372 
L 290.673804 286.100835 
L 289.685605 289.562604 
L 288.460358 293.024374 
L 286.962654 296.486144 
L 285.486453 299.370952 
L 283.781665 302.25576 
L 281.641402 305.386311 
L 279.57006 308.025376 
L 277.526155 310.333222 
L 275.227863 312.641068 
L 272.410017 315.126347 
L 269.525209 317.340636 
L 266.640401 319.268261 
L 263.755593 320.944387 
L 260.752051 322.449416 
L 257.409015 323.863725 
L 253.947245 325.060704 
L 250.485476 326.004058 
L 247.023706 326.707157 
L 243.561937 327.179451 
L 240.100167 327.426951 
L 236.638397 327.452744 
L 233.176628 327.257146 
L 231.445743 327.075687 
L 231.445743 327.075687 
" style="fill:none;stroke:#000080;"/>
   </g>
   <g id="patch_3">
    <path d="M 72 388.8 
L 518.4 388.8 
" style="fill:none;stroke:#000000;stroke-linecap:square;stroke-linejoin:miter;"/>
   </g>
   <g id="patch_4">
    <path d="M 518.4 388.8 
L 518.4 43.2 
" style="fill:none;stroke:#000000;stroke-linecap:square;stroke-linejoin:miter;"/>
   </g>
   <g id="patch_5">
    <path d="M 72 388.8 
L 72 43.2 
" style="fill:none;stroke:#000000;stroke-linecap:square;stroke-linejoin:miter;"/>
   </g>
   <g id="patch_6">
    <path d="M 72 43.2 
L 518.4 43.2 
" style="fill:none;stroke:#000000;stroke-linecap:square;stroke-linejoin:miter;"/>
   </g>
   <g id="matplotlib.axis_1">
    <g id="xtick_1">
     <g id="line2d_1">
      <path clip-path="url(#pd17017734e)" d="M 122.4 388.8 
L 122.4 43.2 
" style="fill:none;stroke:#000000;stroke-dasharray:1.000000,3.000000;stroke-dashoffset:0.0;stroke-width:0.5;"/>
     </g>
     <g id="line2d_2">
      <defs>
       <path d="M 0 0 
L 0 -4 
" id="mb96d0d8322" style="stroke:#000000;stroke-width:0.5;"/>
      </defs>
      <g>
       <use style="stroke:#000000;stroke-width:0.5;" x="122.4" xlink:href="#mb96d0d8322" y="388.8"/>
      </g>
     </g>
     <g id="line2d_3">
      <defs>
       <path d="M 0 0 
L 0 4 
" id="mb825f7b2a9" style="stroke:#000000;stroke-width:0.5;"/>
      </defs>
      <g>
       <use style="stroke:#000000;stroke-width:0.5;" x="122.4" xlink:href="#mb825f7b2a9" y="43.2"/>
      </g>
     </g>
     <g id="text_1">
      <!-- −2 -->
      <defs>
       <path d="M 19.1875 8.296875 
L 53.609375 8.296875 
L 53.609375 0 
L 7.328125 0 
L 7.328125 8.296875 
Q 12.9375 14.109375 22.625 23.890625 
Q 32.328125 33.6875 34.8125 36.53125 
Q 39.546875 41.84375 41.421875 45.53125 
Q 43.3125 49.21875 43.3125 52.78125 
Q 43.3125 58.59375 39.234375 62.25 
Q 35.15625 65.921875 28.609375 65.921875 
Q 23.96875 65.921875 18.8125 64.3125 
Q 13.671875 62.703125 7.8125 59.421875 
L 7.8125 69.390625 
Q 13.765625 71.78125 18.9375 73 
Q 24.125 74.21875 28.421875 74.21875 
Q 39.75 74.21875 46.484375 68.546875 
Q 53.21875 62.890625 53.21875 53.421875 
Q 53.21875 48.921875 51.53125 44.890625 
Q 49.859375 40.875 45.40625 35.40625 
Q 44.1875 33.984375 37.640625 27.21875 
Q 31.109375 20.453125 19.1875 8.296875 
" id="BitstreamVeraSans-Roman-32"/>
       <path d="M 10.59375 35.5 
L 73.1875 35.5 
L 73.1875 27.203125 
L 10.59375 27.203125 
z
" id="BitstreamVeraSans-Roman-2212"/>
      </defs>
      <g transform="translate(113.5546875 401.918125)scale(0.12 -0.12)">
       <use xlink:href="#BitstreamVeraSans-Roman-2212"/>
       <use x="83.7890625" xlink:href="#BitstreamVeraSans-Roman-32"/>
      </g>
     </g>
    </g>
    <g id="xtick_2">
     <g id="line2d_4">
      <path clip-path="url(#pd17017734e)" d="M 180.09616 388.8 
L 180.09616 43.2 
" style="fill:none;stroke:#000000;stroke-dasharray:1.000000,3.000000;stroke-dashoffset:0.0;stroke-width:0.5;"/>
     </g>
     <g id="line2d_5">
      <g>
       <use style="stroke:#000000;stroke-width:0.5;" x="180.096160267" xlink:href="#mb96d0d8322" y="388.8"/>
      </g>
     </g>
     <g id="line2d_6">
      <g>
       <use style="stroke:#000000;stroke-width:0.5;" x="180.096160267" xlink:href="#mb825f7b2a9" y="43.2"/>
      </g>
     </g>
     <g id="text_2">
      <!-- −1 -->
      <defs>
       <path d="M 12.40625 8.296875 
L 28.515625 8.296875 
L 28.515625 63.921875 
L 10.984375 60.40625 
L 10.984375 69.390625 
L 28.421875 72.90625 
L 38.28125 72.90625 
L 38.28125 8.296875 
L 54.390625 8.296875 
L 54.390625 0 
L 12.40625 0 
z
" id="BitstreamVeraSans-Roman-31"/>
      </defs>
      <g transform="translate(171.250847767 401.918125)scale(0.12 -0.12)">
       <use xlink:href="#BitstreamVeraSans-Roman-2212"/>
       <use x="83.7890625" xlink:href="#BitstreamVeraSans-Roman-31"/>
      </g>
     </g>
    </g>
    <g id="xtick_3">
     <g id="line2d_7">
      <path clip-path="url(#pd17017734e)" d="M 237.792321 388.8 
L 237.792321 43.2 
" style="fill:none;stroke:#000000;stroke-dasharray:1.000000,3.000000;stroke-dashoffset:0.0;stroke-width:0.5;"/>
     </g>
     <g id="line2d_8">
      <g>
       <use style="stroke:#000000;stroke-width:0.5;" x="237.792320534" xlink:href="#mb96d0d8322" y="388.8"/>
      </g>
     </g>
     <g id="line2d_9">
      <g>
       <use style="stroke:#000000;stroke-width:0.5;" x="237.792320534" xlink:href="#mb825f7b2a9" y="43.2"/>
      </g>
     </g>
     <g id="text_3">
      <!-- 0 -->
      <defs>
       <path d="M 31.78125 66.40625 
Q 24.171875 66.40625 20.328125 58.90625 
Q 16.5 51.421875 16.5 36.375 
Q 16.5 21.390625 20.328125 13.890625 
Q 24.171875 6.390625 31.78125 6.390625 
Q 39.453125 6.390625 43.28125 13.890625 
Q 47.125 21.390625 47.125 36.375 
Q 47.125 51.421875 43.28125 58.90625 
Q 39.453125 66.40625 31.78125 66.40625 
M 31.78125 74.21875 
Q 44.046875 74.21875 50.515625 64.515625 
Q 56.984375 54.828125 56.984375 36.375 
Q 56.984375 17.96875 50.515625 8.265625 
Q 44.046875 -1.421875 31.78125 -1.421875 
Q 19.53125 -1.421875 13.0625 8.265625 
Q 6.59375 17.96875 6.59375 36.375 
Q 6.59375 54.828125 13.0625 64.515625 
Q 19.53125 74.21875 31.78125 74.21875 
" id="BitstreamVeraSans-Roman-30"/>
      </defs>
      <g transform="translate(233.974820534 401.918125)scale(0.12 -0.12)">
       <use xlink:href="#BitstreamVeraSans-Roman-30"/>
      </g>
     </g>
    </g>
    <g id="xtick_4">
     <g id="line2d_10">
      <path clip-path="url(#pd17017734e)" d="M 295.488481 388.8 
L 295.488481 43.2 
" style="fill:none;stroke:#000000;stroke-dasharray:1.000000,3.000000;stroke-dashoffset:0.0;stroke-width:0.5;"/>
     </g>
     <g id="line2d_11">
      <g>
       <use style="stroke:#000000;stroke-width:0.5;" x="295.488480801" xlink:href="#mb96d0d8322" y="388.8"/>
      </g>
     </g>
     <g id="line2d_12">
      <g>
       <use style="stroke:#000000;stroke-width:0.5;" x="295.488480801" xlink:href="#mb825f7b2a9" y="43.2"/>
      </g>
     </g>
     <g id="text_4">
      <!-- 1 -->
      <g transform="translate(291.670980801 401.918125)scale(0.12 -0.12)">
       <use xlink:href="#BitstreamVeraSans-Roman-31"/>
      </g>
     </g>
    </g>
    <g id="xtick_5">
     <g id="line2d_13">
      <path clip-path="url(#pd17017734e)" d="M 353.184641 388.8 
L 353.184641 43.2 
" style="fill:none;stroke:#000000;stroke-dasharray:1.000000,3.000000;stroke-dashoffset:0.0;stroke-width:0.5;"/>
     </g>
     <g id="line2d_14">
      <g>
       <use style="stroke:#000000;stroke-width:0.5;" x="353.184641068" xlink:href="#mb96d0d8322" y="388.8"/>
      </g>
     </g>
     <g id="line2d_15">
      <g>
       <use style="stroke:#000000;stroke-width:0.5;" x="353.184641068" xlink:href="#mb825f7b2a9" y="43.2"/>
      </g>
     </g>
     <g id="text_5">
      <!-- 2 -->
      <g transform="translate(349.367141068 401.918125)scale(0.12 -0.12)">
       <use xlink:href="#BitstreamVeraSans-Roman-32"/>
      </g>
     </g>
    </g>
    <g id="xtick_6">
     <g id="line2d_16">
      <path clip-path="url(#pd17017734e)" d="M 410.880801 388.8 
L 410.880801 43.2 
" style="fill:none;stroke:#000000;stroke-dasharray:1.000000,3.000000;stroke-dashoffset:0.0;stroke-width:0.5;"/>
     </g>
     <g id="line2d_17">
      <g>
       <use style="stroke:#000000;stroke-width:0.5;" x="410.880801336" xlink:href="#mb96d0d8322" y="388.8"/>
      </g>
     </g>
     <g id="line2d_18">
      <g>
       <use style="stroke:#000000;stroke-width:0.5;" x="410.880801336" xlink:href="#mb825f7b2a9" y="43.2"/>
      </g>
     </g>
     <g id="text_6">
      <!-- 3 -->
      <defs>
       <path d="M 40.578125 39.3125 
Q 47.65625 37.796875 51.625 33 
Q 55.609375 28.21875 55.609375 21.1875 
Q 55.609375 10.40625 48.1875 4.484375 
Q 40.765625 -1.421875 27.09375 -1.421875 
Q 22.515625 -1.421875 17.65625 -0.515625 
Q 12.796875 0.390625 7.625 2.203125 
L 7.625 11.71875 
Q 11.71875 9.328125 16.59375 8.109375 
Q 21.484375 6.890625 26.8125 6.890625 
Q 36.078125 6.890625 40.9375 10.546875 
Q 45.796875 14.203125 45.796875 21.1875 
Q 45.796875 27.640625 41.28125 31.265625 
Q 36.765625 34.90625 28.71875 34.90625 
L 20.21875 34.90625 
L 20.21875 43.015625 
L 29.109375 43.015625 
Q 36.375 43.015625 40.234375 45.921875 
Q 44.09375 48.828125 44.09375 54.296875 
Q 44.09375 59.90625 40.109375 62.90625 
Q 36.140625 65.921875 28.71875 65.921875 
Q 24.65625 65.921875 20.015625 65.03125 
Q 15.375 64.15625 9.8125 62.3125 
L 9.8125 71.09375 
Q 15.4375 72.65625 20.34375 73.4375 
Q 25.25 74.21875 29.59375 74.21875 
Q 40.828125 74.21875 47.359375 69.109375 
Q 53.90625 64.015625 53.90625 55.328125 
Q 53.90625 49.265625 50.4375 45.09375 
Q 46.96875 40.921875 40.578125 39.3125 
" id="BitstreamVeraSans-Roman-33"/>
      </defs>
      <g transform="translate(407.063301336 401.918125)scale(0.12 -0.12)">
       <use xlink:href="#BitstreamVeraSans-Roman-33"/>
      </g>
     </g>
    </g>
    <g id="xtick_7">
     <g id="line2d_19">
      <path clip-path="url(#pd17017734e)" d="M 468.576962 388.8 
L 468.576962 43.2 
" style="fill:none;stroke:#000000;stroke-dasharray:1.000000,3.000000;stroke-dashoffset:0.0;stroke-width:0.5;"/>
     </g>
     <g id="line2d_20">
      <g>
       <use style="stroke:#000000;stroke-width:0.5;" x="468.576961603" xlink:href="#mb96d0d8322" y="388.8"/>
      </g>
     </g>
     <g id="line2d_21">
      <g>
       <use style="stroke:#000000;stroke-width:0.5;" x="468.576961603" xlink:href="#mb825f7b2a9" y="43.2"/>
      </g>
     </g>
     <g id="text_7">
      <!-- 4 -->
      <defs>
       <path d="M 37.796875 64.3125 
L 12.890625 25.390625 
L 37.796875 25.390625 
z
M 35.203125 72.90625 
L 47.609375 72.90625 
L 47.609375 25.390625 
L 58.015625 25.390625 
L 58.015625 17.1875 
L 47.609375 17.1875 
L 47.609375 0 
L 37.796875 0 
L 37.796875 17.1875 
L 4.890625 17.1875 
L 4.890625 26.703125 
z
" id="BitstreamVeraSans-Roman-34"/>
      </defs>
      <g transform="translate(464.759461603 401.918125)scale(0.12 -0.12)">
       <use xlink:href="#BitstreamVeraSans-Roman-34"/>
      </g>
     </g>
    </g>
   </g>
   <g id="matplotlib.axis_2">
    <g id="ytick_1">
     <g id="line2d_22">
      <path clip-path="url(#pd17017734e)" d="M 72 388.8 
L 518.4 388.8 
" style="fill:none;stroke:#000000;stroke-dasharray:1.000000,3.000000;stroke-dashoffset:0.0;stroke-width:0.5;"/>
     </g>
     <g id="line2d_23">
      <defs>
       <path d="M 0 0 
L 4 0 
" id="mf34f4d6766" style="stroke:#000000;stroke-width:0.5;"/>
      </defs>
      <g>
       <use style="stroke:#000000;stroke-width:0.5;" x="72.0" xlink:href="#mf34f4d6766" y="388.8"/>
      </g>
     </g>
     <g id="line2d_24">
      <defs>
       <path d="M 0 0 
L -4 0 
" id="m0f84f0a6a1" style="stroke:#000000;stroke-width:0.5;"/>
      </defs>
      <g>
       <use style="stroke:#000000;stroke-width:0.5;" x="518.4" xlink:href="#m0f84f0a6a1" y="388.8"/>
      </g>
     </g>
     <g id="text_8">
      <!-- −2 -->
      <g transform="translate(50.309375 392.11125)scale(0.12 -0.12)">
       <use xlink:href="#BitstreamVeraSans-Roman-2212"/>
       <use x="83.7890625" xlink:href="#BitstreamVeraSans-Roman-32"/>
      </g>
     </g>
    </g>
    <g id="ytick_2">
     <g id="line2d_25">
      <path clip-path="url(#pd17017734e)" d="M 72 331.10384 
L 518.4 331.10384 
" style="fill:none;stroke:#000000;stroke-dasharray:1.000000,3.000000;stroke-dashoffset:0.0;stroke-width:0.5;"/>
     </g>
     <g id="line2d_26">
      <g>
       <use style="stroke:#000000;stroke-width:0.5;" x="72.0" xlink:href="#mf34f4d6766" y="331.103839733"/>
      </g>
     </g>
     <g id="line2d_27">
      <g>
       <use style="stroke:#000000;stroke-width:0.5;" x="518.4" xlink:href="#m0f84f0a6a1" y="331.103839733"/>
      </g>
     </g>
     <g id="text_9">
      <!-- −1 -->
      <g transform="translate(50.309375 334.415089733)scale(0.12 -0.12)">
       <use xlink:href="#BitstreamVeraSans-Roman-2212"/>
       <use x="83.7890625" xlink:href="#BitstreamVeraSans-Roman-31"/>
      </g>
     </g>
    </g>
    <g id="ytick_3">
     <g id="line2d_28">
      <path clip-path="url(#pd17017734e)" d="M 72 273.407679 
L 518.4 273.407679 
" style="fill:none;stroke:#000000;stroke-dasharray:1.000000,3.000000;stroke-dashoffset:0.0;stroke-width:0.5;"/>
     </g>
     <g id="line2d_29">
      <g>
       <use style="stroke:#000000;stroke-width:0.5;" x="72.0" xlink:href="#mf34f4d6766" y="273.407679466"/>
      </g>
     </g>
     <g id="line2d_30">
      <g>
       <use style="stroke:#000000;stroke-width:0.5;" x="518.4" xlink:href="#m0f84f0a6a1" y="273.407679466"/>
      </g>
     </g>
     <g id="text_10">
      <!-- 0 -->
      <g transform="translate(60.365 276.718929466)scale(0.12 -0.12)">
       <use xlink:href="#BitstreamVeraSans-Roman-30"/>
      </g>
     </g>
    </g>
    <g id="ytick_4">
     <g id="line2d_31">
      <path clip-path="url(#pd17017734e)" d="M 72 215.711519 
L 518.4 215.711519 
" style="fill:none;stroke:#000000;stroke-dasharray:1.000000,3.000000;stroke-dashoffset:0.0;stroke-width:0.5;"/>
     </g>
     <g id="line2d_32">
      <g>
       <use style="stroke:#000000;stroke-width:0.5;" x="72.0" xlink:href="#mf34f4d6766" y="215.711519199"/>
      </g>
     </g>
     <g id="line2d_33">
      <g>
       <use style="stroke:#000000;stroke-width:0.5;" x="518.4" xlink:href="#m0f84f0a6a1" y="215.711519199"/>
      </g>
     </g>
     <g id="text_11">
      <!-- 1 -->
      <g transform="translate(60.365 219.022769199)scale(0.12 -0.12)">
       <use xlink:href="#BitstreamVeraSans-Roman-31"/>
      </g>
     </g>
    </g>
    <g id="ytick_5">
     <g id="line2d_34">
      <path clip-path="url(#pd17017734e)" d="M 72 158.015359 
L 518.4 158.015359 
" style="fill:none;stroke:#000000;stroke-dasharray:1.000000,3.000000;stroke-dashoffset:0.0;stroke-width:0.5;"/>
     </g>
     <g id="line2d_35">
      <g>
       <use style="stroke:#000000;stroke-width:0.5;" x="72.0" xlink:href="#mf34f4d6766" y="158.015358932"/>
      </g>
     </g>
     <g id="line2d_36">
      <g>
       <use style="stroke:#000000;stroke-width:0.5;" x="518.4" xlink:href="#m0f84f0a6a1" y="158.015358932"/>
      </g>
     </g>
     <g id="text_12">
      <!-- 2 -->
      <g transform="translate(60.365 161.326608932)scale(0.12 -0.12)">
       <use xlink:href="#BitstreamVeraSans-Roman-32"/>
      </g>
     </g>
    </g>
    <g id="ytick_6">
     <g id="line2d_37">
      <path clip-path="url(#pd17017734e)" d="M 72 100.319199 
L 518.4 100.319199 
" style="fill:none;stroke:#000000;stroke-dasharray:1.000000,3.000000;stroke-dashoffset:0.0;stroke-width:0.5;"/>
     </g>
     <g id="line2d_38">
      <g>
       <use style="stroke:#000000;stroke-width:0.5;" x="72.0" xlink:href="#mf34f4d6766" y="100.319198664"/>
      </g>
     </g>
     <g id="line2d_39">
      <g>
       <use style="stroke:#000000;stroke-width:0.5;" x="518.4" xlink:href="#m0f84f0a6a1" y="100.319198664"/>
      </g>
     </g>
     <g id="text_13">
      <!-- 3 -->
      <g transform="translate(60.365 103.630448664)scale(0.12 -0.12)">
       <use xlink:href="#BitstreamVeraSans-Roman-33"/>
      </g>
     </g>
    </g>
   </g>
  </g>
 </g>
 <defs>
  <clipPath id="pd17017734e">
   <rect height="345.6" width="446.4" x="72.0" y="43.2"/>
  </clipPath>
 </defs>
</svg>
