<?xml version="1.0" encoding="UTF-8" standalone="no"?>
<!DOCTYPE svg PUBLIC "-//W3C//DTD SVG 1.1//EN"
 "http://www.w3.org/Graphics/SVG/1.1/DTD/svg11.dtd">
<!-- Generated by graphviz version 2.38.0 (20140413.2041)
 -->
<!-- Title: %3 Pages: 1 -->
<svg width="571pt" height="188pt"
 viewBox="0.00 0.00 571.39 188.00" xmlns="http://www.w3.org/2000/svg" xmlns:xlink="http://www.w3.org/1999/xlink">
<g id="graph0" class="graph" transform="scale(1 1) rotate(0) translate(4 184)">
<title>%3</title>
<polygon fill="white" stroke="none" points="-4,4 -4,-184 567.391,-184 567.391,4 -4,4"/>
<!-- ID -->
<g id="node1" class="node"><title>ID</title>
<ellipse fill="none" stroke="black" cx="283.696" cy="-162" rx="27" ry="18"/>
<text text-anchor="middle" x="283.696" y="-158.3" font-family="Times New Roman,serif" font-size="14.00">ID</text>
</g>
<!-- Lamp -->
<g id="node2" class="node"><title>Lamp</title>
<ellipse fill="none" stroke="black" cx="283.696" cy="-90" rx="31.6951" ry="18"/>
<text text-anchor="middle" x="283.696" y="-86.3" font-family="Times New Roman,serif" font-size="14.00">Lamp</text>
</g>
<!-- ID&#45;&gt;Lamp -->
<g id="edge1" class="edge"><title>ID&#45;&gt;Lamp</title>
<path fill="none" stroke="black" d="M283.696,-143.697C283.696,-135.983 283.696,-126.712 283.696,-118.112"/>
<polygon fill="black" stroke="black" points="287.196,-118.104 283.696,-108.104 280.196,-118.104 287.196,-118.104"/>
</g>
<!-- PointLamp -->
<g id="node3" class="node"><title>PointLamp</title>
<ellipse fill="none" stroke="black" cx="50.6955" cy="-18" rx="50.8918" ry="18"/>
<text text-anchor="middle" x="50.6955" y="-14.3" font-family="Times New Roman,serif" font-size="14.00">PointLamp</text>
</g>
<!-- Lamp&#45;&gt;PointLamp -->
<g id="edge2" class="edge"><title>Lamp&#45;&gt;PointLamp</title>
<path fill="none" stroke="black" d="M256.052,-80.6952C217.113,-68.9968 145.567,-47.5023 98.0577,-33.229"/>
<polygon fill="black" stroke="black" points="98.8891,-29.8243 88.3049,-30.299 96.875,-36.5283 98.8891,-29.8243"/>
</g>
<!-- AreaLamp -->
<g id="node4" class="node"><title>AreaLamp</title>
<ellipse fill="none" stroke="black" cx="167.696" cy="-18" rx="48.9926" ry="18"/>
<text text-anchor="middle" x="167.696" y="-14.3" font-family="Times New Roman,serif" font-size="14.00">AreaLamp</text>
</g>
<!-- Lamp&#45;&gt;AreaLamp -->
<g id="edge3" class="edge"><title>Lamp&#45;&gt;AreaLamp</title>
<path fill="none" stroke="black" d="M262.689,-76.3235C245.477,-65.9371 220.806,-51.0491 200.919,-39.0489"/>
<polygon fill="black" stroke="black" points="202.533,-35.935 192.163,-33.765 198.917,-41.9284 202.533,-35.935"/>
</g>
<!-- SpotLamp -->
<g id="node5" class="node"><title>SpotLamp</title>
<ellipse fill="none" stroke="black" cx="283.696" cy="-18" rx="49.2915" ry="18"/>
<text text-anchor="middle" x="283.696" y="-14.3" font-family="Times New Roman,serif" font-size="14.00">SpotLamp</text>
</g>
<!-- Lamp&#45;&gt;SpotLamp -->
<g id="edge4" class="edge"><title>Lamp&#45;&gt;SpotLamp</title>
<path fill="none" stroke="black" d="M283.696,-71.6966C283.696,-63.9827 283.696,-54.7125 283.696,-46.1124"/>
<polygon fill="black" stroke="black" points="287.196,-46.1043 283.696,-36.1043 280.196,-46.1044 287.196,-46.1043"/>
</g>
<!-- SunLamp -->
<g id="node6" class="node"><title>SunLamp</title>
<ellipse fill="none" stroke="black" cx="397.696" cy="-18" rx="46.2923" ry="18"/>
<text text-anchor="middle" x="397.696" y="-14.3" font-family="Times New Roman,serif" font-size="14.00">SunLamp</text>
</g>
<!-- Lamp&#45;&gt;SunLamp -->
<g id="edge5" class="edge"><title>Lamp&#45;&gt;SunLamp</title>
<path fill="none" stroke="black" d="M304.605,-76.1609C321.55,-65.7558 345.725,-50.9115 365.192,-38.958"/>
<polygon fill="black" stroke="black" points="367.072,-41.9109 373.763,-33.6956 363.409,-35.9457 367.072,-41.9109"/>
</g>
<!-- HemiLamp -->
<g id="node7" class="node"><title>HemiLamp</title>
<ellipse fill="none" stroke="black" cx="512.696" cy="-18" rx="50.8918" ry="18"/>
<text text-anchor="middle" x="512.696" y="-14.3" font-family="Times New Roman,serif" font-size="14.00">HemiLamp</text>
</g>
<!-- Lamp&#45;&gt;HemiLamp -->
<g id="edge6" class="edge"><title>Lamp&#45;&gt;HemiLamp</title>
<path fill="none" stroke="black" d="M311.318,-80.5564C349.554,-68.8687 419.144,-47.5965 465.654,-33.3795"/>
<polygon fill="black" stroke="black" points="466.958,-36.6409 475.498,-30.3705 464.911,-29.9467 466.958,-36.6409"/>
</g>
</g>
</svg>
